<mxfile host="app.diagrams.net" modified="2021-06-04T03:20:23.724Z" agent="5.0 (Macintosh; Intel Mac OS X 10_15_7) AppleWebKit/537.36 (KHTML, like Gecko) Chrome/90.0.4430.212 Safari/537.36" etag="c2-El666XsLYJW6sNwRm" version="14.6.13" type="github">
  <diagram name="Page-1" id="13e1069c-82ec-6db2-03f1-153e76fe0fe0">
    <mxGraphModel dx="1123" dy="734" grid="1" gridSize="10" guides="1" tooltips="1" connect="1" arrows="1" fold="1" page="1" pageScale="1" pageWidth="1100" pageHeight="850" background="#ffffff" math="0" shadow="0">
      <root>
        <mxCell id="0" />
        <mxCell id="1" parent="0" />
        <mxCell id="G0kBllWM4XBfNNBUBDi2-18" value=":Object" style="shape=umlLifeline;perimeter=lifelinePerimeter;whiteSpace=wrap;html=1;container=1;collapsible=0;recursiveResize=0;outlineConnect=0;" parent="1" vertex="1">
          <mxGeometry x="27" y="39" width="100" height="300" as="geometry" />
        </mxCell>
        <mxCell id="G0kBllWM4XBfNNBUBDi2-16" value="«actor»&lt;br&gt;&lt;b&gt;Admin&lt;/b&gt;" style="html=1;" parent="1" vertex="1">
          <mxGeometry x="2" y="39" width="150" height="40" as="geometry" />
        </mxCell>
        <mxCell id="G0kBllWM4XBfNNBUBDi2-21" value=":Object" style="shape=umlLifeline;perimeter=lifelinePerimeter;whiteSpace=wrap;html=1;container=1;collapsible=0;recursiveResize=0;outlineConnect=0;" parent="1" vertex="1">
          <mxGeometry x="159" y="39" width="150" height="300" as="geometry" />
        </mxCell>
        <mxCell id="G0kBllWM4XBfNNBUBDi2-22" value="«boundary»&lt;br&gt;&lt;b&gt;AssignManageView&lt;/b&gt;" style="html=1;" parent="G0kBllWM4XBfNNBUBDi2-21" vertex="1">
          <mxGeometry width="150" height="40" as="geometry" />
        </mxCell>
        <mxCell id="G0kBllWM4XBfNNBUBDi2-32" value="" style="html=1;points=[];perimeter=orthogonalPerimeter;" parent="G0kBllWM4XBfNNBUBDi2-21" vertex="1">
          <mxGeometry x="70" y="60" width="10" height="70" as="geometry" />
        </mxCell>
        <mxCell id="DVAs7N8q5XkVekkUKqxM-5" value="" style="html=1;points=[];perimeter=orthogonalPerimeter;" parent="G0kBllWM4XBfNNBUBDi2-21" vertex="1">
          <mxGeometry x="70" y="141" width="10" height="69" as="geometry" />
        </mxCell>
        <mxCell id="G0kBllWM4XBfNNBUBDi2-26" value=":Object" style="shape=umlLifeline;perimeter=lifelinePerimeter;whiteSpace=wrap;html=1;container=1;collapsible=0;recursiveResize=0;outlineConnect=0;" parent="1" vertex="1">
          <mxGeometry x="333" y="39" width="150" height="331" as="geometry" />
        </mxCell>
        <mxCell id="G0kBllWM4XBfNNBUBDi2-27" value="«boundary»&lt;br&gt;&lt;b&gt;CoreView - MessageBox&lt;/b&gt;" style="html=1;" parent="G0kBllWM4XBfNNBUBDi2-26" vertex="1">
          <mxGeometry x="-15" width="168" height="40" as="geometry" />
        </mxCell>
        <mxCell id="G0kBllWM4XBfNNBUBDi2-28" value=":Object" style="shape=umlLifeline;perimeter=lifelinePerimeter;whiteSpace=wrap;html=1;container=1;collapsible=0;recursiveResize=0;outlineConnect=0;" parent="1" vertex="1">
          <mxGeometry x="497" y="39" width="200" height="281" as="geometry" />
        </mxCell>
        <mxCell id="G0kBllWM4XBfNNBUBDi2-29" value="«control»&lt;br&gt;&lt;b&gt;AssignController&lt;/b&gt;" style="html=1;" parent="G0kBllWM4XBfNNBUBDi2-28" vertex="1">
          <mxGeometry width="200" height="40" as="geometry" />
        </mxCell>
        <mxCell id="G0kBllWM4XBfNNBUBDi2-35" value="" style="html=1;points=[];perimeter=orthogonalPerimeter;" parent="G0kBllWM4XBfNNBUBDi2-28" vertex="1">
          <mxGeometry x="95" y="190" width="10" height="50" as="geometry" />
        </mxCell>
        <mxCell id="G0kBllWM4XBfNNBUBDi2-30" value=":Object" style="shape=umlLifeline;perimeter=lifelinePerimeter;whiteSpace=wrap;html=1;container=1;collapsible=0;recursiveResize=0;outlineConnect=0;" parent="1" vertex="1">
          <mxGeometry x="710" y="40" width="180" height="290" as="geometry" />
        </mxCell>
        <mxCell id="G0kBllWM4XBfNNBUBDi2-31" value="«entity»&lt;br&gt;&lt;b&gt;Entity: Teacher, Class, Subject&lt;/b&gt;" style="html=1;" parent="G0kBllWM4XBfNNBUBDi2-30" vertex="1">
          <mxGeometry width="195" height="40" as="geometry" />
        </mxCell>
        <mxCell id="G0kBllWM4XBfNNBUBDi2-37" value="" style="html=1;points=[];perimeter=orthogonalPerimeter;" parent="G0kBllWM4XBfNNBUBDi2-30" vertex="1">
          <mxGeometry x="85" y="199" width="10" height="40" as="geometry" />
        </mxCell>
        <mxCell id="G0kBllWM4XBfNNBUBDi2-23" value="1: Chọn thêm file CSV" style="html=1;verticalAlign=bottom;startArrow=oval;startFill=1;endArrow=block;startSize=8;entryX=-0.2;entryY=0.09;entryDx=0;entryDy=0;entryPerimeter=0;" parent="1" target="G0kBllWM4XBfNNBUBDi2-32" edge="1">
          <mxGeometry width="60" relative="1" as="geometry">
            <mxPoint x="76.5" y="106" as="sourcePoint" />
            <mxPoint x="245.5" y="106" as="targetPoint" />
            <Array as="points">
              <mxPoint x="140" y="106" />
            </Array>
          </mxGeometry>
        </mxCell>
        <mxCell id="G0kBllWM4XBfNNBUBDi2-34" value="7 : Gửi thông tin Phân công giáo viên" style="html=1;verticalAlign=bottom;startArrow=oval;startFill=1;endArrow=block;startSize=8;" parent="1" target="G0kBllWM4XBfNNBUBDi2-35" edge="1">
          <mxGeometry width="60" relative="1" as="geometry">
            <mxPoint x="240" y="240" as="sourcePoint" />
            <mxPoint x="638.7500000000002" y="240" as="targetPoint" />
          </mxGeometry>
        </mxCell>
        <mxCell id="G0kBllWM4XBfNNBUBDi2-36" value="8 : Yêu cầu xác thực dữ liệu" style="html=1;verticalAlign=bottom;startArrow=oval;startFill=1;endArrow=block;startSize=8;exitX=0.8;exitY=0.39;exitDx=0;exitDy=0;exitPerimeter=0;" parent="1" source="G0kBllWM4XBfNNBUBDi2-35" target="G0kBllWM4XBfNNBUBDi2-30" edge="1">
          <mxGeometry width="60" relative="1" as="geometry">
            <mxPoint x="540" y="220" as="sourcePoint" />
            <mxPoint x="600" y="220" as="targetPoint" />
          </mxGeometry>
        </mxCell>
        <mxCell id="G0kBllWM4XBfNNBUBDi2-40" value="" style="html=1;points=[];perimeter=orthogonalPerimeter;" parent="1" vertex="1">
          <mxGeometry x="795" y="290" width="10" height="35" as="geometry" />
        </mxCell>
        <mxCell id="G0kBllWM4XBfNNBUBDi2-41" value="9 : Xác thực dữ liệu" style="edgeStyle=orthogonalEdgeStyle;html=1;align=left;spacingLeft=2;endArrow=block;rounded=0;exitX=0.95;exitY=0.547;exitDx=0;exitDy=0;exitPerimeter=0;entryX=1.051;entryY=0.286;entryDx=0;entryDy=0;entryPerimeter=0;" parent="1" source="G0kBllWM4XBfNNBUBDi2-37" edge="1" target="G0kBllWM4XBfNNBUBDi2-40">
          <mxGeometry relative="1" as="geometry">
            <mxPoint x="847" y="259" as="sourcePoint" />
            <Array as="points">
              <mxPoint x="835" y="261" />
              <mxPoint x="835" y="300" />
            </Array>
            <mxPoint x="807" y="309" as="targetPoint" />
          </mxGeometry>
        </mxCell>
        <mxCell id="DVAs7N8q5XkVekkUKqxM-1" value="2 : Kiểm tra trạng thái đăng nhập" style="html=1;verticalAlign=bottom;endArrow=open;dashed=1;endSize=8;" parent="1" target="G0kBllWM4XBfNNBUBDi2-18" edge="1">
          <mxGeometry relative="1" as="geometry">
            <mxPoint x="230" y="130" as="sourcePoint" />
            <mxPoint x="340" y="230" as="targetPoint" />
            <Array as="points">
              <mxPoint x="190" y="130" />
            </Array>
          </mxGeometry>
        </mxCell>
        <mxCell id="DVAs7N8q5XkVekkUKqxM-3" value="3 : Tải file CSV" style="html=1;verticalAlign=bottom;startArrow=oval;startFill=1;endArrow=block;startSize=8;" parent="1" target="G0kBllWM4XBfNNBUBDi2-21" edge="1">
          <mxGeometry width="60" relative="1" as="geometry">
            <mxPoint x="76.5" y="155" as="sourcePoint" />
            <mxPoint x="245.5" y="155" as="targetPoint" />
            <Array as="points">
              <mxPoint x="140" y="155" />
            </Array>
          </mxGeometry>
        </mxCell>
        <mxCell id="DVAs7N8q5XkVekkUKqxM-4" value="4 : Đọc file CSV&amp;nbsp;" style="edgeStyle=orthogonalEdgeStyle;html=1;align=left;spacingLeft=2;endArrow=block;rounded=0;exitX=1;exitY=0.5;exitDx=0;exitDy=0;exitPerimeter=0;" parent="1" edge="1">
          <mxGeometry relative="1" as="geometry">
            <mxPoint x="240" y="140" as="sourcePoint" />
            <Array as="points">
              <mxPoint x="260" y="140" />
              <mxPoint x="260" y="190" />
              <mxPoint x="240" y="190" />
            </Array>
            <mxPoint x="240" y="190" as="targetPoint" />
          </mxGeometry>
        </mxCell>
        <mxCell id="DVAs7N8q5XkVekkUKqxM-6" value="5 : Hiện nôi dung file để xác nhận" style="html=1;verticalAlign=bottom;endArrow=open;dashed=1;endSize=8;" parent="1" edge="1">
          <mxGeometry relative="1" as="geometry">
            <mxPoint x="230" y="200" as="sourcePoint" />
            <mxPoint x="79.99666666666674" y="200" as="targetPoint" />
            <Array as="points">
              <mxPoint x="193.33" y="200" />
            </Array>
          </mxGeometry>
        </mxCell>
        <mxCell id="DVAs7N8q5XkVekkUKqxM-7" value="6 : Xác nhận thêm" style="html=1;verticalAlign=bottom;startArrow=oval;startFill=1;endArrow=block;startSize=8;" parent="1" edge="1">
          <mxGeometry width="60" relative="1" as="geometry">
            <mxPoint x="80" y="222.57999999999998" as="sourcePoint" />
            <mxPoint x="230" y="223" as="targetPoint" />
            <Array as="points">
              <mxPoint x="143.5" y="222.57999999999998" />
            </Array>
          </mxGeometry>
        </mxCell>
        <mxCell id="DVAs7N8q5XkVekkUKqxM-8" value="10 : Thêm mới dữ liệu" style="html=1;verticalAlign=bottom;endArrow=open;" parent="1" edge="1">
          <mxGeometry relative="1" as="geometry">
            <mxPoint x="603" y="343" as="sourcePoint" />
            <mxPoint x="990" y="343" as="targetPoint" />
            <Array as="points" />
          </mxGeometry>
        </mxCell>
        <mxCell id="DVAs7N8q5XkVekkUKqxM-9" value="11 : Thông báo kết quả" style="html=1;verticalAlign=bottom;endArrow=open;dashed=1;endSize=8;" parent="1" edge="1" target="G0kBllWM4XBfNNBUBDi2-26">
          <mxGeometry relative="1" as="geometry">
            <mxPoint x="990" y="364" as="sourcePoint" />
            <mxPoint x="419.5" y="364" as="targetPoint" />
          </mxGeometry>
        </mxCell>
        <mxCell id="Eg60KRj4SV_zWnYCvvEK-2" value=":Object" style="shape=umlLifeline;perimeter=lifelinePerimeter;whiteSpace=wrap;html=1;container=1;collapsible=0;recursiveResize=0;outlineConnect=0;" parent="1" vertex="1">
          <mxGeometry x="910" y="40" width="170" height="320" as="geometry" />
        </mxCell>
        <mxCell id="Eg60KRj4SV_zWnYCvvEK-3" value="«entity»&lt;br&gt;&lt;b&gt;Entity: Assign&lt;/b&gt;" style="html=1;" parent="Eg60KRj4SV_zWnYCvvEK-2" vertex="1">
          <mxGeometry width="170" height="40" as="geometry" />
        </mxCell>
        <mxCell id="Eg60KRj4SV_zWnYCvvEK-5" value="" style="html=1;points=[];perimeter=orthogonalPerimeter;" parent="1" vertex="1">
          <mxGeometry x="990" y="337" width="10" height="31" as="geometry" />
        </mxCell>
        <mxCell id="9weVlGht1myIXm14hZ-5-1" value="" style="html=1;points=[];perimeter=orthogonalPerimeter;" vertex="1" parent="1">
          <mxGeometry x="592" y="300" width="10" height="50" as="geometry" />
        </mxCell>
        <mxCell id="9weVlGht1myIXm14hZ-5-2" value="10 : Trả về kết quả xác thực" style="html=1;verticalAlign=bottom;startArrow=oval;startFill=1;endArrow=block;startSize=8;" edge="1" parent="1">
          <mxGeometry width="60" relative="1" as="geometry">
            <mxPoint x="799.5" y="316" as="sourcePoint" />
            <mxPoint x="602" y="316" as="targetPoint" />
          </mxGeometry>
        </mxCell>
      </root>
    </mxGraphModel>
  </diagram>
</mxfile>
